<svg width="24" height="25" viewBox="0 0 24 25" fill="none" xmlns="http://www.w3.org/2000/svg">
<path d="M12 2.21097C15.204 2.21097 15.584 2.22323 16.85 2.28252C20.102 2.4338 21.621 4.01102 21.769 7.3106C21.827 8.60366 21.838 8.99208 21.838 12.2671C21.838 15.5432 21.826 15.9306 21.769 17.2237C21.62 20.5202 20.105 22.1005 16.85 22.2518C15.584 22.311 15.206 22.3233 12 22.3233C8.796 22.3233 8.416 22.311 7.151 22.2518C3.891 22.0994 2.38 20.5151 2.232 17.2226C2.174 15.9296 2.162 15.5422 2.162 12.2661C2.162 8.99106 2.175 8.60366 2.232 7.30958C2.381 4.01102 3.896 2.43278 7.151 2.2815C8.417 2.22323 8.796 2.21097 12 2.21097ZM12 0C8.741 0 8.333 0.0143105 7.053 0.0735967C2.695 0.278032 0.273 2.74965 0.073 7.20839C0.014 8.51779 0 8.93484 0 12.2661C0 15.5974 0.014 16.0155 0.072 17.3238C0.272 21.7785 2.69 24.2542 7.052 24.4586C8.333 24.5179 8.741 24.5322 12 24.5322C15.259 24.5322 15.668 24.5179 16.948 24.4586C21.302 24.2542 23.73 21.7826 23.927 17.3238C23.986 16.0155 24 15.5974 24 12.2661C24 8.93484 23.986 8.51779 23.928 7.20941C23.732 2.75885 21.311 0.279054 16.949 0.0746189C15.668 0.0143105 15.259 0 12 0V0ZM12 5.96746C8.597 5.96746 5.838 8.78765 5.838 12.2661C5.838 15.7446 8.597 18.5658 12 18.5658C15.403 18.5658 18.162 15.7456 18.162 12.2661C18.162 8.78765 15.403 5.96746 12 5.96746ZM12 16.3548C9.791 16.3548 8 14.5251 8 12.2661C8 10.0081 9.791 8.17741 12 8.17741C14.209 8.17741 16 10.0081 16 12.2661C16 14.5251 14.209 16.3548 12 16.3548ZM18.406 4.24714C17.61 4.24714 16.965 4.90645 16.965 5.71908C16.965 6.53171 17.61 7.19101 18.406 7.19101C19.201 7.19101 19.845 6.53171 19.845 5.71908C19.845 4.90645 19.201 4.24714 18.406 4.24714Z" fill="#1E1E1E"/>
</svg>
